<svg xmlns="http://www.w3.org/2000/svg" data-name="Layer 1" viewBox="0 0 512 512"><path fill="#94c1ff" d="M92.639 363.971a5.995 5.995 0 0 1-5.995-5.995V148.141H72.499v229.975h108.238a88.221 88.221 0 0 1-7.235-14.145zM342.189 432.881l23.159 23.158a1.077 1.077 0 0 0 1.5 0l14.424-14.453a.983.983 0 0 0 .31-.739.986.986 0 0 0-.284-.714l-23.184-23.212c-.188-.188-.459-.281-.732-.281s-.547.094-.736.284l-14.457 14.457a1.076 1.076 0 0 0 0 1.5zM328.69 356.091a77.039 77.039 0 0 0 4.264-25.341c0-20.558-8.006-39.886-22.544-54.424-29.999-29.973-78.817-29.97-108.82 0-30.009 30.009-30.008 78.837 0 108.846 14.999 14.985 34.707 22.479 54.409 22.481 19.707.001 39.409-7.493 54.412-22.483 8.3-8.3 14.461-18.166 18.228-28.927.016-.052.034-.102.051-.153zM256 398.497c-37.349 0-67.734-30.398-67.734-67.762s30.385-67.734 67.734-67.734 67.733 30.385 67.733 67.734-30.385 67.762-67.733 67.762zM425.356 357.976a5.995 5.995 0 0 1-5.995 5.995h-80.82a87.911 87.911 0 0 1-7.25 14.145h108.211V148.141h-14.146z"/><g fill="#116fff"><path d="M126.145 162.003h96.35a5.995 5.995 0 1 0 0-11.99h-96.35a5.995 5.995 0 1 0 0 11.99zM126.145 262.916h43.342a5.995 5.995 0 1 0 0-11.99h-43.342a5.995 5.995 0 1 0 0 11.99zM126.145 195.622h96.35a5.995 5.995 0 1 0 0-11.99h-96.35a5.995 5.995 0 1 0 0 11.99zM391.85 223.274a5.995 5.995 0 0 0-5.995-5.995h-96.35a5.995 5.995 0 1 0 0 11.99h96.35a5.995 5.995 0 0 0 5.995-5.995zM126.145 229.269h96.35a5.995 5.995 0 1 0 0-11.99h-96.35a5.995 5.995 0 1 0 0 11.99zM385.855 318.22h-23.357a5.995 5.995 0 1 0 0 11.99h23.357a5.995 5.995 0 1 0 0-11.99zM385.855 250.926h-43.342a5.995 5.995 0 1 0 0 11.99h43.342a5.995 5.995 0 1 0 0-11.99zM289.506 162.003h96.35a5.995 5.995 0 1 0 0-11.99h-96.35a5.995 5.995 0 1 0 0 11.99zM385.855 284.573h-23.357a5.995 5.995 0 1 0 0 11.99h23.357a5.995 5.995 0 1 0 0-11.99zM149.502 318.22h-23.357a5.995 5.995 0 1 0 0 11.99h23.357a5.995 5.995 0 1 0 0-11.99zM10.01 113.502a5.995 5.995 0 0 0 5.995-5.995V40.128c0-13.309 10.815-24.137 24.109-24.137h67.379a5.995 5.995 0 1 0 0-11.99H40.114C20.208 4 4.014 20.207 4.014 40.128v67.379a5.995 5.995 0 0 0 5.995 5.995zM501.99 398.498a5.995 5.995 0 0 0-5.995 5.995v67.379c0 13.309-10.815 24.137-24.109 24.137h-67.379a5.995 5.995 0 1 0 0 11.99h67.379c19.905 0 36.099-16.207 36.099-36.127v-67.379a5.995 5.995 0 0 0-5.995-5.995zM40.114 508h67.379a5.995 5.995 0 1 0 0-11.99H40.114c-13.293 0-24.109-10.828-24.109-24.137v-67.379a5.995 5.995 0 1 0-11.99 0v67.379C4.015 491.794 20.209 508 40.114 508zM289.506 195.622h96.35a5.995 5.995 0 1 0 0-11.99h-96.35a5.995 5.995 0 1 0 0 11.99zM471.886 4h-67.379a5.995 5.995 0 1 0 0 11.99h67.379c13.293 0 24.109 10.828 24.109 24.137v67.38a5.995 5.995 0 1 0 11.99 0V40.128c0-19.921-16.194-36.127-36.099-36.127zM256 263.002c-37.349 0-67.734 30.385-67.734 67.734s30.385 67.762 67.734 67.762 67.733-30.398 67.733-67.762-30.385-67.734-67.733-67.734zm0 123.505c-30.737 0-55.744-25.019-55.744-55.771s25.006-55.744 55.744-55.744 55.743 25.006 55.743 55.744-25.006 55.771-55.743 55.771zM149.502 284.573h-23.357a5.995 5.995 0 1 0 0 11.99h23.357a5.995 5.995 0 1 0 0-11.99z"/><path d="M419.361 109.987H282.136c-10.764 0-20.302 5.331-26.135 13.487-5.834-8.157-15.371-13.487-26.136-13.487H92.639a5.995 5.995 0 0 0-5.995 5.995v20.168h-20.14a5.995 5.995 0 0 0-5.995 5.995V384.11a5.995 5.995 0 0 0 5.995 5.995h123.26a90.63 90.63 0 0 0 3.35 3.547c17.337 17.323 40.111 25.984 62.885 25.984 17.633 0 35.255-5.217 50.366-15.602l24.146 24.147c-1.421 4.498-.361 9.617 3.199 13.177l23.159 23.159c2.544 2.544 5.885 3.816 9.227 3.816s6.688-1.273 9.234-3.82l14.415-14.443c2.468-2.45 3.828-5.724 3.828-9.223s-1.364-6.786-3.816-9.212l-23.162-23.19c-3.552-3.553-8.66-4.612-13.149-3.197l-15.156-15.142h107.207a5.995 5.995 0 0 0 5.995-5.995V142.146a5.995 5.995 0 0 0-5.995-5.995h-20.141v-20.168a5.995 5.995 0 0 0-5.995-5.995zm-157.365 32.159c0-11.121 9.035-20.168 20.14-20.168h131.23v230.003h-70.968a89.58 89.58 0 0 0 2.546-21.231c0-23.761-9.253-46.1-26.058-62.904-15.815-15.801-36.155-24.371-56.891-25.759v-99.94zM98.635 121.978h131.23c11.105 0 20.141 9.047 20.141 20.168v99.94c-20.736 1.388-41.076 9.958-56.891 25.759l-.002.002c-22.772 22.772-30.592 54.92-23.461 84.134H98.635zM72.5 378.117V148.141h14.145v209.835a5.995 5.995 0 0 0 5.995 5.995h80.862a88.303 88.303 0 0 0 7.235 14.145H72.499zM256 407.655c-19.702-.001-39.41-7.496-54.409-22.481-30.009-30.009-30.009-78.837 0-108.846 30.003-29.97 78.821-29.974 108.82 0 14.538 14.538 22.544 33.866 22.544 54.424 0 8.764-1.468 17.3-4.264 25.341-.017.051-.035.101-.051.153-3.767 10.761-9.928 20.627-18.228 28.927-15.003 14.99-34.705 22.484-54.412 22.483zm100.646 9.27c.189-.189.463-.284.736-.284s.544.094.732.281l23.184 23.212c.235.232.284.516.284.714s-.049.481-.284.713l-.026.026-14.424 14.453a1.077 1.077 0 0 1-1.5 0l-23.159-23.158a1.074 1.074 0 0 1 0-1.5zm-12.72-4.237-5.976 5.976-22.113-22.114a90.245 90.245 0 0 0 3.052-2.898 91.385 91.385 0 0 0 2.918-3.064l22.12 22.099zm95.575-264.545v229.975H331.29a87.911 87.911 0 0 0 7.25-14.145h80.82a5.995 5.995 0 0 0 5.995-5.995V148.141h14.146z"/></g></svg>