<?xml version="1.0" encoding="UTF-8"?>
<svg id="Layer_1" data-name="Layer 1" xmlns="http://www.w3.org/2000/svg" viewBox="0 0 32 32">
  <defs>
    <style>
      .cls-1 {
        fill: #f8f9fc;
      }

      .cls-1, .cls-2 {
        stroke: #369;
      }

      .cls-1, .cls-2, .cls-3 {
        stroke-linecap: round;
        stroke-linejoin: round;
        stroke-width: .8px;
      }

      .cls-2, .cls-3 {
        fill: none;
      }

      .cls-4 {
        fill: #f7d31d;
      }

      .cls-3 {
        stroke: #2d5f8a;
      }

      .cls-5 {
        opacity: .5;
      }

      .cls-6 {
        fill: #3b9de0;
        isolation: isolate;
        opacity: .2;
      }
    </style>
  </defs>
  <path class="cls-6" d="M1.8,8.1h2.1v15.9c4.5-1.2,7.7-1.6,12.1.4h0c4.4-2,7.6-1.6,12.1-.4,0-5.3.2-10.6,0-15.9h2v17.5h-11.7c-.4.1,0,1.1-1,1.4-.1,0-2.6.1-2.8,0-1.1-.2-1-1.3-1.5-1.5H1.7V7.8h0l.1.3Z"/>
  <path class="cls-2" d="M3.5,8.1h-1.8v17.6h11.5c.5.2.3,1.3,1.5,1.5h2.8c1-.4.6-1.3,1-1.4h11.7V8.2h-.1c0-.1-1.6,0-1.6,0"/>
  <path class="cls-1" d="M28.21,8.17c0-.5,0-1.97-.21-2.17-.3-.3-3.1-1-3.7-1-.82-.07-1.39-.08-2.09-.06-.89.03-1.21.06-2.11.26-1.2.3-2.9,1-4.2,1.3-3.3-1.7-7-2-10.5-.9-2,.7-1.5.5-1.5,2.6v15.9c4.5-1.2,7.7-1.6,12.1.4h0c4.4-2,7.6-1.6,12.1-.4,0-5.3.31-10.63.11-15.93"/>
  <path class="cls-4" d="M22.2,5.28c.8,0,1.39.09,2.09.09,0,.1,0,.12,0,.22v10.9l-2.1-2.7-2.1,2.8V5.6c.91-.2,1.15-.3,2.04-.32"/>
  <line class="cls-2" x1="15.9" y1="6.4" x2="16" y2="24.4"/>
  <path class="cls-2" d="M24.3,5.3v11.3l-2.1-2.8-2.1,2.9V5.4"/>
  <g id="lines1" class="cls-5">
    <line class="cls-3" x1="6.7" y1="17.2" x2="13" y2="17.2"/>
    <line class="cls-3" x1="6.7" y1="14.5" x2="13" y2="14.5"/>
    <line class="cls-3" x1="6.7" y1="11.9" x2="13" y2="11.9"/>
  </g>
</svg>